<?xml version="1.0" standalone="no"?> <!DOCTYPE svg PUBLIC "-//W3C//DTD SVG 20010904//EN" "http://www.w3.org/TR/2001/REC-SVG-20010904/DTD/svg10.dtd"> <svg version="1.0" xmlns="http://www.w3.org/2000/svg" width="24.000000pt" height="24.000000pt" viewBox="0 0 24.000000 24.000000" preserveAspectRatio="xMidYMid meet"> <g transform="translate(0.000000,24.000000) scale(0.100000,-0.100000)" fill="#2ebd65" stroke="none"> <path d="M90 199 c-15 -28 -2 -39 16 -15 14 20 14 20 29 0 19 -25 19 -32 -2 -37 -14 -3 -12 -6 10 -15 16 -7 32 -10 37 -7 11 7 19 55 9 60 -4 3 -9 -3 -11 -12 -3 -14 -8 -11 -23 15 -22 37 -49 42 -65 11z"/> <path d="M43 150 c-13 -5 -23 -14 -23 -21 0 -6 7 -9 15 -5 19 7 19 1 -1 -29 -9 -14 -14 -32 -10 -40 6 -17 56 -21 56 -5 0 6 -9 10 -20 10 -24 0 -24 0 -6 34 11 23 15 24 20 10 10 -27 19 -8 11 25 -7 33 -9 34 -42 21z"/> <path d="M186 102 c-3 -6 -2 -13 4 -17 20 -12 10 -25 -20 -25 -22 0 -28 4 -24 15 9 21 -10 19 -31 -5 -17 -19 -17 -21 0 -40 21 -23 40 -27 32 -6 -4 11 4 16 31 18 41 3 51 22 29 52 -9 12 -16 15 -21 8z"/> </g> </svg>